<svg id="Layer_1" data-name="Layer 1" xmlns="http://www.w3.org/2000/svg" viewBox="0 0 500 98.35"><defs><style>.cls-1{fill:#4267b2;}.cls-2{fill:#fff;}</style></defs><title>FindUs-FB-RGB-BRC-Site-500</title><path class="cls-1" d="M3.4,21.71H40v7.61H11.46V48.63h23.6v7.51H11.46v25H3.4Z"/><path class="cls-1" d="M53,28c-3.51,0-5.12-2.66-5.12-5.62s1.61-5.61,5.12-5.61,5.11,2.67,5.11,5.61S56.5,28,53,28ZM49.1,81.15V37.4l7.77-1.23v45Z"/><path class="cls-1" d="M96.36,81.15V53.76c0-7.51-2.85-10.08-9-10.08A17.37,17.37,0,0,0,76,48.44V81.15H68.2V37.4L76,36.17v6.56c4-4,9.1-6.56,14.12-6.56,8.81,0,14,5.61,14,15v30Z"/><path class="cls-1" d="M143.91,17.05l7.77-1.23V81.15h-7.77v-4c-3.13,3-7,5.42-12.13,5.42-12.23,0-19.34-9.89-19.34-23s9.1-23.39,22.08-23.39a33.66,33.66,0,0,1,9.39,1.42Zm-9.67,26.16c-8.82,0-13.74,7.22-13.74,16.16,0,9.61,4.83,16,12.88,16a15.8,15.8,0,0,0,10.53-4.18V46.34A15,15,0,0,0,134.24,43.21Z"/><path class="cls-1" d="M188.93,37.59V65c0,7.52,2.84,10.08,8.53,10.08a17.67,17.67,0,0,0,11.85-4.75V37.59h7.77V81.34l-7.77,1.24V76.21a20.63,20.63,0,0,1-14.6,6.37c-8.34,0-13.55-5.61-13.55-15v-30Z"/><path class="cls-1" d="M241.94,82.67a30.64,30.64,0,0,1-15.17-4.09l2-7.13a25.45,25.45,0,0,0,13.37,4.09c4.93,0,8.63-2.28,8.63-6.18,0-4.38-5.12-5.8-10.24-7.23-6.16-1.71-12.89-4.76-12.89-12.74s6.82-13.22,15.54-13.22a32,32,0,0,1,14,3.23l-2,7.13a28.66,28.66,0,0,0-12.42-3.23c-4.64,0-7.67,1.9-7.67,5.42,0,4.19,4.64,5.61,10,7,6.35,1.71,13.18,4.75,13.18,13S251.42,82.67,241.94,82.67Z"/><path class="cls-1" d="M304.21,82.58c-12.32,0-20.95-9.13-20.95-23.21s8.92-23.3,21.43-23.3,20.85,9.23,20.85,23.3S316.44,82.58,304.21,82.58Zm.1-39.47c-8.63,0-13.37,6.75-13.37,16.17s5,16.26,13.56,16.26,13.36-6.66,13.36-16.07S312.84,43.11,304.31,43.11Z"/><path class="cls-1" d="M362.19,81.15V53.76c0-7.51-2.84-10.08-9-10.08a17.37,17.37,0,0,0-11.37,4.76V81.15H334V37.4l7.78-1.23v6.56c4-4,9.09-6.56,14.12-6.56,8.81,0,14,5.61,14,15v30Z"/><path class="cls-1" d="M491.87,2H407.82a5.21,5.21,0,0,0-5.21,5.21V91.27a5.21,5.21,0,0,0,5.21,5.21h45.26V60H440.81V45.65h12.27V35.12c0-12.2,7.45-18.85,18.33-18.85a98.72,98.72,0,0,1,11,.57V29.59h-7.51c-5.92,0-7.07,2.82-7.07,7v9.11H482L480.16,60H467.84V96.48h24a5.22,5.22,0,0,0,5.22-5.21v-84A5.22,5.22,0,0,0,491.87,2Z"/><path id="f" class="cls-2" d="M467.84,96.48V60h12.32L482,45.65H467.84V36.54c0-4.13,1.15-6.95,7.07-6.95h7.51V16.84a98.72,98.72,0,0,0-11-.57c-10.88,0-18.33,6.65-18.33,18.85V45.65H440.81V60h12.27V96.48Z"/></svg>